:SAMPLES-PER-SECOND 30
:FULLY-SPECIFIED
:DEGREES
50
root  -3.87036 39.2368 -3.45307 -177.821 -69.8488 175.529
RightUpLeg  -21.0478 -12.6569 -5.40948
RightLeg  7.30625 -10.2352 3.00325
RightFoot  2.38017 -0.444029 3.84322
RightToes  0.000482159 0.542163 -0.142577
Spine  17.8663 -3.72391 -7.1513
Spine1  1.71968 -6.66358 7.89517
HEad  7.33083 12.6079 -8.26969
LeftShoulder1  5.33667 -8.75266 -37.3913
LeftArm  -10.2922 -3.21552 -44.9073
LeftForeArm  30.6925 -13.3555 -4.83779
LeftHand  -0.25398 0.0180481 5.50724
RightShoulder  3.75791 7.14661 29.307
RightArm  -9.53575 -29.5247 49.8505
RightForeArm  22.4131 13.1532 5.56453
RightHand  -0.468933 -0.821051 -11.8447
LeftUpLeg  14.262 8.21111 3.24649
LeftLeg  10.0846 20.0216 -2.18813
LeftFoot  -19.3459 -0.48118 -8.53133
LeftToes  1.06245e-005 4.65856e-005 -8.18503e-006
51
root  -4.83489 39.0879 -4.06075 179.373 -69.6279 178.767
RightUpLeg  -22.3384 -16.4651 -2.22529
RightLeg  11.3313 -7.11303 1.69054
RightFoot  4.08922 -0.234999 1.93641
RightToes  0.000482159 0.542163 -0.142577
Spine  18.5728 -4.55235 -5.68221
Spine1  1.80174 -7.55442 8.62977
HEad  6.76341 14.4144 -9.30104
LeftShoulder1  5.32722 -8.76689 -37.2688
LeftArm  -6.64416 -3.69463 -46.1024
LeftForeArm  31.1461 -16.7823 -4.38674
LeftHand  -0.25398 0.0180481 5.50724
RightShoulder  3.7115 7.11204 28.9778
RightArm  -7.04479 -31.4402 49.8634
RightForeArm  22.8494 14.4598 5.54666
RightHand  -0.320796 -1.85436 -10.2546
LeftUpLeg  15.5798 9.43595 5.21227
LeftLeg  10.8762 18.8116 -1.14923
LeftFoot  -19.591 -0.559998 -9.36177
LeftToes  1.06245e-005 4.65856e-005 -8.18503e-006
52
root  -5.88935 38.9426 -4.72155 175.321 -68.8891 -176.857
RightUpLeg  -23.7067 -20.9498 1.89629
RightLeg  15.7543 -2.15582 0.364267
RightFoot  4.46778 -0.0456598 0.538933
RightToes  0.000482159 0.542163 -0.142577
Spine  19.3563 -5.36712 -3.12171
Spine1  1.82778 -8.02239 8.44047
HEad  6.38994 16.1801 -9.91129
LeftShoulder1  5.39012 -8.89418 -37.3289
LeftArm  -3.93855 -3.53555 -46.1981
LeftForeArm  30.7054 -20.3429 -3.67643
LeftHand  -0.25398 0.0180481 5.50724
RightShoulder  3.69033 7.08638 28.86
RightArm  -5.97658 -32.3031 48.8695
RightForeArm  21.8945 14.6913 5.63651
RightHand  -0.285121 -2.17341 -9.86446
LeftUpLeg  16.9073 12.3066 8.29254
LeftLeg  12.7575 15.4606 0.479384
LeftFoot  -19.654 -0.780787 -12.2981
LeftToes  1.06245e-005 4.65856e-005 -8.18503e-006
53
root  -6.96313 38.7919 -5.44971 171.734 -67.6813 -173.268
RightUpLeg  -24.236 -22.2968 4.47574
RightLeg  20.2629 0.396696 -0.20065
RightFoot  2.64368 0.10529 -0.730426
RightToes  0.000482159 0.542163 -0.142577
Spine  20.2841 -5.94255 -0.796895
Spine1  2.03634 -8.17052 8.24096
HEad  6.32383 17.8587 -10.1741
LeftShoulder1  5.53789 -9.08864 -37.8143
LeftArm  -3.80756 -2.87298 -45.128
LeftForeArm  30.6763 -23.574 -3.45019
LeftHand  -0.25398 0.0180481 5.50724
RightShoulder  3.73545 7.15322 29.0694
RightArm  -6.87772 -31.6728 47.0786
RightForeArm  21.9927 13.4962 5.83085
RightHand  -0.271578 -2.26193 -9.6042
LeftUpLeg  17.7034 15.9159 11.6596
LeftLeg  16.5517 10.5385 2.75916
LeftFoot  -18.699 -1.05066 -18.2161
LeftToes  1.06245e-005 4.65856e-005 -8.18503e-006
54
root  -7.99654 38.6771 -6.23129 169.732 -66.3374 -171.342
RightUpLeg  -23.7443 -21.1611 5.27444
RightLeg  24.0826 0.281989 -0.0857724
RightFoot  -0.289336 0.208262 -2.17413
RightToes  0.000482159 0.542163 -0.142577
Spine  20.9553 -6.1462 0.67919
Spine1  2.51685 -8.04957 8.27925
HEad  6.77463 19.0818 -10.0671
LeftShoulder1  5.68912 -9.25451 -38.4052
LeftArm  -5.57299 -2.10675 -43.5804
LeftForeArm  30.9257 -25.6613 -3.85411
LeftHand  -0.25398 0.0180481 5.50724
RightShoulder  3.81145 7.26122 29.4317
RightArm  -9.52662 -29.7113 45.1933
RightForeArm  23.2858 11.3165 5.74445
RightHand  -0.227027 -2.70251 -9.14174
LeftUpLeg  15.7227 14.9112 12.7713
LeftLeg  24.505 11.2496 6.10644
LeftFoot  -14.7395 -0.568493 -21.4767
LeftToes  1.06245e-005 4.65856e-005 -8.18503e-006
55
root  -8.98512 38.6469 -7.00677 168.867 -65.0225 -170.434
RightUpLeg  -22.7711 -20.7387 5.94714
RightLeg  26.5034 0.638434 0.112498
RightFoot  -2.94669 0.206477 -3.05858
RightToes  0.000482159 0.542163 -0.142577
Spine  21.1873 -6.00934 2.05335
Spine1  3.08484 -7.51573 7.76427
HEad  7.65874 19.4451 -9.64302
LeftShoulder1  5.78827 -9.40336 -38.6495
LeftArm  -7.11609 -1.55351 -42.3798
LeftForeArm  30.1157 -26.4931 -4.0823
LeftHand  -0.25398 0.0180481 5.50724
RightShoulder  3.89384 7.40028 29.7418
RightArm  -12.6015 -27.0741 43.7315
RightForeArm  22.9111 9.30255 5.16981
RightHand  -0.174143 -3.43344 -9.19927
LeftUpLeg  10.7733 12.3618 12.4865
LeftLeg  36.0198 13.7642 10.8646
LeftFoot  -6.85011 0.601645 -16.0939
LeftToes  1.06245e-005 4.65856e-005 -8.18503e-006
56
root  -9.91838 38.6077 -7.68646 167.557 -63.8976 -169.033
RightUpLeg  -21.5711 -20.4167 6.59807
RightLeg  28.3356 0.975669 0.327763
RightFoot  -5.35745 0.114693 -2.86156
RightToes  0.000482159 0.542163 -0.142577
Spine  21.258 -5.90719 4.51681
Spine1  3.78683 -6.57181 6.42697
HEad  8.54167 18.9786 -9.18108
LeftShoulder1  5.89463 -9.65593 -38.6016
LeftArm  -8.45595 -1.22752 -41.5526
LeftForeArm  28.9812 -26.83 -4.21508
LeftHand  -0.25398 0.0180481 5.50724
RightShoulder  4.01197 7.65847 29.9783
RightArm  -14.8181 -24.0781 42.4299
RightForeArm  19.7725 8.2315 4.60833
RightHand  -0.164477 -3.74332 -10.0824
LeftUpLeg  4.47106 10.8758 12.356
LeftLeg  47.2887 11.942 13.7885
LeftFoot  0.764239 0.659835 -5.9491
LeftToes  1.06245e-005 4.65856e-005 -8.18503e-006
57
root  -10.8434 38.6141 -8.30699 166.329 -63.067 -167.912
RightUpLeg  -19.8184 -19.9975 6.81628
RightLeg  29.5282 1.25024 0.516112
RightFoot  -7.69867 0.0202721 -2.28959
RightToes  0.000482159 0.542163 -0.142577
Spine  21.214 -5.75701 7.08136
Spine1  4.77338 -5.49068 4.85744
HEad  9.12273 18.134 -8.97513
LeftShoulder1  6.05874 -10.0074 -38.6511
LeftArm  -9.58868 -0.947178 -40.6616
LeftForeArm  28.0409 -27.3578 -4.38036
LeftHand  -0.25398 0.0180481 5.50724
RightShoulder  4.17456 8.02931 30.2368
RightArm  -15.4716 -20.3545 40.7114
RightForeArm  16.3309 7.81775 4.5167
RightHand  -0.242692 -3.04912 -11.2085
LeftUpLeg  -1.5546 9.97983 12.105
LeftLeg  55.5236 7.44174 11.9257
LeftFoot  3.11916 0.148476 -1.19747
LeftToes  1.06245e-005 4.65856e-005 -8.18503e-006
58
root  -11.8231 38.7832 -8.96092 166.492 -62.525 -168.366
RightUpLeg  -17.1955 -19.5623 6.17021
RightLeg  29.3616 1.48709 0.654929
RightFoot  -9.65442 -0.0369633 -1.9395
RightToes  0.000482159 0.542163 -0.142577
Spine  20.8606 -5.27429 8.29252
Spine1  5.82136 -4.49755 3.69792
HEad  9.56689 17.325 -9.06714
LeftShoulder1  6.21211 -10.2757 -38.8829
LeftArm  -10.3954 -0.500336 -39.6075
LeftForeArm  27.4842 -27.8861 -4.52677
LeftHand  -0.25398 0.0180481 5.50724
RightShoulder  4.31406 8.32428 30.5184
RightArm  -14.5571 -15.5809 38.5109
RightForeArm  14.8487 7.44213 4.76375
RightHand  -0.39594 -1.72294 -12.2465
LeftUpLeg  -6.98274 9.67833 11.1236
LeftLeg  60.2873 3.82363 7.84913
LeftFoot  1.4262 0.304124 -2.85999
LeftToes  1.06245e-005 4.65856e-005 -8.18503e-006
59
root  -12.8311 39.025 -9.63201 167.668 -62.1858 -169.754
RightUpLeg  -14.3004 -19.2499 5.04967
RightLeg  28.2975 1.75976 0.777314
RightFoot  -11.163 -0.0729134 -1.44179
RightToes  0.000482159 0.542163 -0.142577
Spine  20.3222 -4.57325 8.64961
Spine1  6.44587 -3.57381 2.91919
HEad  10.2097 16.6309 -9.2958
LeftShoulder1  6.28418 -10.3809 -39.0528
LeftArm  -10.9527 0.266786 -38.6772
LeftForeArm  27.3241 -27.9306 -4.54538
LeftHand  -0.25398 0.0180481 5.50724
RightShoulder  4.35875 8.39771 30.6707
RightArm  -13.1378 -10.2453 36.308
RightForeArm  14.7333 7.14376 5.07889
RightHand  -0.557293 -0.62719 -13.51
LeftUpLeg  -12.157 10.0019 9.48294
LeftLeg  61.748 2.44373 5.55998
LeftFoot  -0.628786 0.511845 -5.37745
LeftToes  1.06245e-005 4.65856e-005 -8.18503e-006
